<svg xmlns:xlink="http://www.w3.org/1999/xlink" xmlns="http://www.w3.org/2000/svg" viewBox="0 0 369.7695137611495 103.86044272768885" height="103.86044272768885" width="369.7695137611495" style="width: 369.77px; height: 103.86px; position: absolute; top: 50%; left: 50%; transform: translate(-50%, -50%) scale(0.33913); z-index: 0; cursor: pointer;"><defs id="SvgjsDefs1959"></defs><g id="SvgjsG1960" featurekey="hmhgWD-0" transform="matrix(1.2109115154107624,0,0,1.2109115154107624,-11.694984561413833,-5.004125278539268)" fill="#FFFFFF"><path xmlns="http://www.w3.org/2000/svg" d="M48.154,6.61c-21.227,0-38.496,17.27-38.496,38.496c0,16.819,10.847,31.145,25.91,36.372l-0.256,5.364  c0,1.689,1.369,3.061,3.061,3.061c1.689,0,3.061-1.371,3.061-3.061l-0.186-3.873c2.242,0.408,4.548,0.633,6.906,0.633  c2.966,0,5.852-0.348,8.627-0.987v4.539c0,1.359,1.102,2.461,2.461,2.461s2.462-1.102,2.462-2.461v-6.021  c14.56-5.494,24.946-19.566,24.946-36.026C86.65,23.88,69.381,6.61,48.154,6.61z M48.154,79.862c-2.428,0-4.799-0.253-7.088-0.729  l-0.126-2.653c2.32,0.537,4.732,0.831,7.214,0.831c2.989,0,5.881-0.421,8.627-1.191v2.659  C54.021,79.485,51.131,79.862,48.154,79.862z M39.914,54.929c3.133-1.015,5.789-4.795,5.642-6.725l-2.767-20.259  c-0.001-0.151-0.133-0.274-0.295-0.274c-0.164,0-0.295,0.123-0.297,0.274l0.304,16.605c0,0.331-0.289,0.601-0.646,0.601  c-0.357,0-0.647-0.27-0.647-0.601l-1.097-16.605c-0.01-0.122-0.115-0.219-0.248-0.219s-0.239,0.097-0.248,0.219L39.02,44.551  c0,0.331-0.291,0.601-0.647,0.601s-0.646-0.27-0.646-0.601l-0.598-16.605c-0.008-0.122-0.113-0.219-0.247-0.219  c-0.133,0-0.239,0.097-0.249,0.219l-1.097,16.605c0,0.331-0.289,0.601-0.646,0.601c-0.357,0-0.647-0.27-0.647-0.601l0.304-16.605  c0-0.151-0.133-0.274-0.295-0.274c-0.164,0-0.295,0.123-0.296,0.274l-2.767,20.259c-0.146,1.93,2.508,5.71,5.643,6.725  l-0.848,17.792c-10.491-4.677-17.826-15.198-17.826-27.407c0-16.54,13.456-29.996,29.996-29.996S78.15,28.774,78.15,45.314  c0,11.666-6.698,21.79-16.446,26.748v-6.751V50.043V27.957c-11.087,0-12.251,37.354-12.251,37.354h7.328v8.729  c-2.734,0.822-5.629,1.27-8.627,1.27c-2.521,0-4.971-0.316-7.313-0.906L39.914,54.929z M61.704,77.111V74.29  C72.591,69.179,80.15,58.115,80.15,45.314c0-17.643-14.354-31.996-31.996-31.996S16.158,27.671,16.158,45.314  c0,13.297,8.155,24.722,19.725,29.545l-0.129,2.708c-13.057-5.004-22.355-17.663-22.355-32.461  c0-19.163,15.592-34.756,34.756-34.756S82.91,25.943,82.91,45.106C82.91,59.467,74.156,71.819,61.704,77.111z" fill="#FFFFFF"></path></g><g id="SvgjsG1961" featurekey="1RRcwp-0" transform="matrix(3.244890507011417,0,0,3.244890507011417,106.89960354136483,8.518823667648299)" fill="#FFFFFF"><path d="M9.38 14.780000000000001 c-0.28 0.58 -0.68 1.02 -1.24 1.28 l1.68 3.7 c0.06 0.12 -0.02 0.24 -0.14 0.24 l-2.46 0 c-0.08 0 -0.12 -0.04 -0.14 -0.1 l-1.56 -3.4 l-1.02 0 l0 3.32 c0 0.1 -0.08 0.18 -0.18 0.18 l-2.3 0 c-0.08 0 -0.14 -0.08 -0.14 -0.18 l0 -12.84 c0 -0.1 0.06 -0.18 0.14 -0.18 l4.16 0 c2.22 0 3.56 1.26 3.56 3.6 l0 2.52 c0 0.7 -0.12 1.36 -0.36 1.86 z M7.12 12.3 l0 -1.3 c0 -1.4 -0.52 -1.54 -2.04 -1.54 l-0.58 0 l0 4.42 l0.58 0 c1.26 0 2 -0.02 2.04 -1.58 z M3.34 18.78 l0 -3.42 l2.88 0 l1.68 3.46 c0.04 0.1 0.28 0.06 0.22 -0.12 l-1.68 -3.4 c1.56 -0.22 2.1 -1.04 2.1 -2.52 l0 -2.5 c0 -2.2 -2 -2.38 -2.62 -2.38 l-2.7 0 c-0.04 0 -0.12 0.06 -0.12 0.12 l0 10.76 c0 0.14 0.24 0.14 0.24 0 z M8.3 10.28 l0 2.5 c0 2.04 -1.3 2.32 -2.56 2.32 l-2.4 0 l0 -6.94 l2.58 0 c2.16 0 2.38 1.46 2.38 2.12 z M13.440000000000001 20 c-0.1 0 -0.16 -0.08 -0.16 -0.18 l0 -12.84 c0 -0.1 0.06 -0.18 0.16 -0.18 l6.8 0 c0.1 0 0.18 0.08 0.18 0.18 l0 2.14 c0 0.1 -0.08 0.18 -0.18 0.18 l-4.32 0 l0 2.72 l3.36 0 c0.1 0 0.16 0.08 0.16 0.18 l0 2.18 c0 0.1 -0.06 0.18 -0.16 0.18 l-3.36 0 l0 2.94 l4.32 0 c0.1 0 0.18 0.08 0.18 0.18 l0 2.14 c0 0.1 -0.08 0.18 -0.18 0.18 l-6.8 0 z M14.440000000000001 8.06 l0 10.64 c0 0.12 0.08 0.16 0.16 0.16 l4.6 0 c0.18 0 0.14 -0.24 0 -0.24 l-4.5 0 l0 -5.22 l3.68 0 c0.12 0 0.12 -0.28 0 -0.28 l-3.68 0 l0 -4.96 l4.5 0 c0.14 0 0.18 -0.26 0 -0.26 l-4.6 0 c-0.08 0 -0.16 0.06 -0.16 0.16 z M30.060000000000002 15.379999999999999 l0 -0.62 c0 -0.1 0.08 -0.18 0.18 -0.18 l2.28 0 c0.1 0 0.18 0.08 0.18 0.18 l0 1.26 c0 2.94 -1.58 4.18 -4.56 4.18 c-2.78 0 -4.6 -1.1 -4.6 -4.18 l0 -5.26 c0 -2.96 1.62 -4.14 4.6 -4.14 c2.82 0 4.56 1.08 4.56 4.14 l0 0.42 c0 0.1 -0.08 0.18 -0.18 0.18 l-2.3 0 c-0.1 0 -0.18 -0.08 -0.18 -0.18 l0 -0.32 c0 -1.1 -0.82 -1.56 -1.8 -1.56 l-0.24 0 c-0.66 0 -1.1 0.18 -1.4 0.58 c-0.28 0.38 -0.38 0.88 -0.38 1.54 l0 3.96 c0 1.74 0.98 2.12 1.78 2.12 l0.24 0 c1.26 0 1.78 -0.84 1.82 -2.12 z M28.1 7.859999999999999 c-2.14 0 -3.38 0.76 -3.38 3.2 l0 4.82 c0 2.22 1.14 3.04 3.38 3.04 c2.1 0 3.36 -0.76 3.36 -3.06 c0 -0.16 -0.24 -0.16 -0.24 0 c0 2.02 -1.1 2.84 -3.12 2.84 c-1.96 0 -3.16 -0.68 -3.16 -2.82 l0 -4.82 c0 -2.08 0.98 -2.98 3.16 -2.98 c2.84 0 2.94 1.8 2.94 2 c0 0.18 0.28 0.2 0.28 0 c0 -1.66 -1.68 -2.22 -3.22 -2.22 z M36.24 20 c-0.1 0 -0.16 -0.08 -0.16 -0.18 l0 -12.84 c0 -0.1 0.06 -0.18 0.16 -0.18 l2.28 0 c0.1 0 0.18 0.08 0.18 0.18 l0 12.84 c0 0.1 -0.08 0.18 -0.18 0.18 l-2.28 0 z M37.28 8 l0 10.78 c0 0.18 0.22 0.18 0.22 0 l0 -10.78 c0 -0.14 -0.22 -0.14 -0.22 0 z M46.68 6.800000000000001 c2.22 0 3.56 1.26 3.56 3.6 l0 2.52 c0 2.14 -1.32 3.58 -3.56 3.58 l-1.68 0 l0 3.32 c0 0.1 -0.08 0.18 -0.18 0.18 l-2.3 0 c-0.08 0 -0.14 -0.08 -0.14 -0.18 l0 -12.84 c0 -0.1 0.06 -0.18 0.14 -0.18 l4.16 0 z M47.62 12.32 l0 -1.32 c0 -1.38 -0.64 -1.52 -2.04 -1.52 l-0.58 0 l0 4.4 l0.58 0 c1.1 0 2.04 -0.2 2.04 -1.56 z M49.04 12.780000000000001 l0 -2.5 c0 -2.2 -1.7 -2.38 -2.62 -2.38 l-2.7 0 c-0.04 0 -0.12 0.06 -0.12 0.12 l0 10.76 c0 0.14 0.24 0.14 0.24 0 l0 -3.4 l2.4 0 c1.76 0 2.8 -0.62 2.8 -2.6 z M43.84 8.16 l2.58 0 c2.22 0 2.36 1.46 2.36 2.12 l0 2.5 c0 2.04 -1.28 2.32 -2.54 2.32 l-2.4 0 l0 -6.94 z M53.22 20 c-0.1 0 -0.16 -0.08 -0.16 -0.18 l0 -12.84 c0 -0.1 0.06 -0.18 0.16 -0.18 l6.8 0 c0.1 0 0.18 0.08 0.18 0.18 l0 2.14 c0 0.1 -0.08 0.18 -0.18 0.18 l-4.32 0 l0 2.72 l3.36 0 c0.1 0 0.16 0.08 0.16 0.18 l0 2.18 c0 0.1 -0.06 0.18 -0.16 0.18 l-3.36 0 l0 2.94 l4.32 0 c0.1 0 0.18 0.08 0.18 0.18 l0 2.14 c0 0.1 -0.08 0.18 -0.18 0.18 l-6.8 0 z M54.22 8.06 l0 10.64 c0 0.12 0.08 0.16 0.16 0.16 l4.6 0 c0.18 0 0.14 -0.24 0 -0.24 l-4.5 0 l0 -5.22 l3.68 0 c0.12 0 0.12 -0.28 0 -0.28 l-3.68 0 l0 -4.96 l4.5 0 c0.14 0 0.18 -0.26 0 -0.26 l-4.6 0 c-0.08 0 -0.16 0.06 -0.16 0.16 z M66.02000000000001 6.800000000000001 c0.1 0 0.18 0.08 0.18 0.18 l0 10.5 l4.32 0 c0.1 0 0.18 0.08 0.18 0.18 l0 2.16 c0 0.1 -0.08 0.18 -0.18 0.18 l-6.78 0 c-0.1 0 -0.16 -0.08 -0.16 -0.18 l0 -12.84 c0 -0.1 0.06 -0.18 0.16 -0.18 l2.28 0 z M64.78 8.02 l0 10.76 c0 0.04 0.04 0.1 0.12 0.1 l4.62 0 c0.16 0 0.16 -0.26 0 -0.26 l-4.52 0 l0 -10.6 c0 -0.14 -0.22 -0.16 -0.22 0 z M75 6.9 l1.74 3.36 l1.7 -3.36 c0.06 -0.1 0.08 -0.1 0.16 -0.1 l2.24 0 c0.12 0 0.2 0.12 0.16 0.22 l-2.9 6.74 l0 6.06 c0 0.1 -0.08 0.18 -0.18 0.18 l-2.36 0 c-0.06 0 -0.14 -0.08 -0.14 -0.18 l0 -6.06 l-2.98 -6.7 c-0.04 -0.14 0.02 -0.26 0.16 -0.26 l2.24 0 c0.08 0 0.1 0 0.16 0.1 z M76.84 13.3 l2.5 -5.2 c0.06 -0.12 -0.14 -0.22 -0.22 -0.08 l-2.38 4.98 l-2.44 -4.98 c-0.08 -0.14 -0.3 -0.04 -0.24 0.1 l2.56 5.18 l0 5.52 c0 0.14 0.22 0.16 0.22 0 l0 -5.52 z" fill="#FFFFFF"></path></g></svg>